<svg xmlns="http://www.w3.org/2000/svg" width="408.79" height="537.711" viewBox="0 0 408.79 537.711">
  <defs>
    <style>
      .cls-1, .cls-2, .cls-26, .cls-30, .cls-32, .cls-33, .cls-4, .cls-8 {
        fill: none;
      }

      .cls-1 {
        stroke: #d2dcff;
      }

      .cls-1, .cls-2, .cls-26, .cls-32, .cls-33, .cls-4 {
        stroke-miterlimit: 10;
      }

      .cls-1, .cls-2, .cls-32, .cls-8 {
        stroke-width: 1.401px;
      }

      .cls-2 {
        stroke: #94abff;
      }

      .cls-3 {
        fill: #52538c;
      }

      .cls-4 {
        stroke: #52538c;
        stroke-width: 1.037px;
      }

      .cls-5 {
        fill: #4a5eb8;
      }

      .cls-6 {
        fill: #3e4e99;
      }

      .cls-7 {
        fill: #95ebff;
      }

      .cls-33, .cls-8 {
        stroke: #a2aedb;
      }

      .cls-30, .cls-8 {
        stroke-linecap: round;
        stroke-linejoin: round;
      }

      .cls-9 {
        fill: #20284d;
      }

      .cls-10 {
        fill: #f8b58f;
      }

      .cls-11 {
        fill: #f4a087;
      }

      .cls-12 {
        fill: #f4a086;
      }

      .cls-13 {
        fill: #242b58;
      }

      .cls-14 {
        fill: #f8b690;
      }

      .cls-15 {
        fill: #cef0f2;
      }

      .cls-16 {
        fill: #222b54;
      }

      .cls-17 {
        fill: #232c54;
      }

      .cls-18 {
        fill: #2e3961;
      }

      .cls-19 {
        fill: #f49f86;
      }

      .cls-20 {
        fill: #ee9c84;
      }

      .cls-21 {
        fill: #c7d3ff;
      }

      .cls-22 {
        fill: #f7b690;
      }

      .cls-23 {
        fill: #485896;
      }

      .cls-24 {
        fill: #222b55;
      }

      .cls-25 {
        fill: #354380;
      }

      .cls-26 {
        stroke: #354380;
        stroke-width: 1.317px;
      }

      .cls-27 {
        fill: #c8ccdb;
      }

      .cls-28 {
        fill: #a2aedb;
      }

      .cls-29 {
        fill: #94abff;
      }

      .cls-30 {
        stroke: #fff;
        stroke-width: 0.896px;
      }

      .cls-31 {
        fill: #5f65a3;
      }

      .cls-32 {
        stroke: #cef0f2;
      }

      .cls-33 {
        stroke-width: 2.945px;
      }
    </style>
  </defs>
  <g id="Main" transform="translate(-115.272 -139.112)">
    <g id="Group_1" data-name="Group 1" transform="translate(136.39 232.471)">
      <path id="Path_1" data-name="Path 1" class="cls-1" d="M299.655,263.969a87.149,87.149,0,0,0-95.443-78,87.472,87.472,0,0,0-58.762,31.552,87.158,87.158,0,0,0,76.2,141.893,87.5,87.5,0,0,0,58.764-31.578A87.185,87.185,0,0,0,299.655,263.969Zm-52.989,36.283a43.712,43.712,0,0,1-29.382,15.777A43.563,43.563,0,0,1,179.2,245.095a43.743,43.743,0,0,1,29.382-15.775,43.561,43.561,0,0,1,38.087,70.933Z" transform="translate(-125.771 -185.528)"/>
      <path id="Path_2" data-name="Path 2" class="cls-1" d="M255.987,327.832a86.2,86.2,0,0,1-30.508,23.748l-18.9-39.27a43,43,0,0,0,15.662-12.058,43.57,43.57,0,0,0-38.087-70.933,43.031,43.031,0,0,0-15.353,4.507l-18.875-39.27a86.037,86.037,0,0,1,29.861-8.593,87.148,87.148,0,0,1,76.2,141.867Z" transform="translate(-101.344 -185.528)"/>
    </g>
    <path id="Path_4" data-name="Path 4" class="cls-2" d="M287.765,254.641v.01l.084.089c.207.219,2.478,8.373,2.56,8.679l-7.675,4.447c-.223-.223-6.169-6.247-6.257-6.535l-.034-.119-.008,0-8.309,1.106-.006.008,0,.123c-.01.3-4.17,7.671-4.326,7.947l-8.572-2.283c0-.316.056-8.78.2-9.045l.058-.109,0-.008-6.658-5.093-.01,0-.089.084c-.219.205-8.373,2.476-8.679,2.56l-4.447-7.675c.223-.225,6.247-6.169,6.537-6.257l.117-.034,0-.01-1.106-8.307-.008-.006-.121,0c-.3-.01-7.673-4.168-7.949-4.326l2.283-8.572c.316,0,8.78.056,9.047.2l.107.056h.008l5.093-6.66v-.01l-.084-.086c-.207-.221-2.478-8.373-2.56-8.679l7.675-4.449c.223.225,6.167,6.249,6.257,6.537l.034.117.008.006,8.307-1.108.008-.008,0-.121c.01-.3,4.17-7.673,4.326-7.947l8.572,2.281c0,.318-.056,8.78-.2,9.047l-.058.107,0,.01,6.658,5.091h.01l.086-.084c.221-.205,8.375-2.478,8.679-2.56l4.449,7.675c-.225.223-6.249,6.169-6.537,6.257l-.117.034-.006.008,1.108,8.309.008.006.121,0c.3.01,7.673,4.17,7.947,4.326l-2.281,8.572c-.316,0-8.78-.056-9.047-.2l-.107-.058-.01,0Zm-3.649-28.813a17.839,17.839,0,1,0-6.489,24.38A17.837,17.837,0,0,0,284.116,225.829Z" transform="translate(119.131 60.726)"/>
    <g id="Group_6" data-name="Group 6" transform="translate(115.272 400.573)">
      <g id="Group_4" data-name="Group 4">
        <path id="Path_5" data-name="Path 5" class="cls-3" d="M219.428,295.035c.187.31-27.908,38.741-63.241,18.812S219.428,295.035,219.428,295.035Z" transform="translate(-81.625 -242.89)"/>
        <path id="Path_6" data-name="Path 6" class="cls-3" d="M137.817,369.639c-.358,0-17.531-44.537,17.965-64.172S137.817,369.639,137.817,369.639Z" transform="translate(-96.985 -235.343)"/>
        <path id="Path_7" data-name="Path 7" class="cls-3" d="M186.691,277.817c.251.155-3.3,37.347-35.275,35.661S186.691,277.817,186.691,277.817Z" transform="translate(-87.436 -260.292)"/>
        <path id="Path_8" data-name="Path 8" class="cls-3" d="M128.3,269.11c.175-.239,36.45,6.76,31.852,38.819S128.3,269.11,128.3,269.11Z" transform="translate(-102.099 -269.104)"/>
        <path id="Path_9" data-name="Path 9" class="cls-3" d="M115.272,307.466c-.153-.255,20.021-31.552,47.587-15.075S115.272,307.466,115.272,307.466Z" transform="translate(-115.272 -250.398)"/>
        <path id="Path_10" data-name="Path 10" class="cls-3" d="M126.033,333.817c-.263-.135.531-37.492,32.54-38.232S126.033,333.817,126.033,333.817Z" transform="translate(-104.418 -242.333)"/>
        <path id="Path_11" data-name="Path 11" class="cls-3" d="M200.86,330.651c-.016.3-34.095,14.7-47.728-14.617S200.86,330.651,200.86,330.651Z" transform="translate(-78.979 -231.838)"/>
        <path id="Path_12" data-name="Path 12" class="cls-4" d="M141.953,292.546s16.183,13.82,18.7,29.034,4.95,78.552,4.95,78.552v37.9" transform="translate(-88.287 -245.396)"/>
      </g>
      <g id="Group_5" data-name="Group 5" transform="translate(53.666 189.862)">
        <path id="Path_13" data-name="Path 13" class="cls-5" d="M186.688,365.875l-.676,7.55-4.958,55.411H148.433l-4.958-55.411-.676-7.55Z" transform="translate(-141.097 -361.096)"/>
        <path id="Path_14" data-name="Path 14" class="cls-6" d="M186.688,365.875l-.676,7.55H143.475l-.676-7.55Z" transform="translate(-141.097 -361.096)"/>
        <rect id="Rectangle_20" data-name="Rectangle 20" class="cls-5" width="47.233" height="8.937"/>
      </g>
    </g>
    <ellipse id="Ellipse_1" data-name="Ellipse 1" class="cls-7" cx="2.688" cy="2.973" rx="2.688" ry="2.973" transform="translate(235.733 655.205)"/>
    <ellipse id="Ellipse_2" data-name="Ellipse 2" class="cls-7" cx="2.688" cy="2.973" rx="2.688" ry="2.973" transform="translate(245.802 655.205)"/>
    <ellipse id="Ellipse_3" data-name="Ellipse 3" class="cls-7" cx="2.688" cy="2.973" rx="2.688" ry="2.973" transform="translate(259.69 655.205)"/>
    <ellipse id="Ellipse_4" data-name="Ellipse 4" class="cls-7" cx="2.688" cy="2.973" rx="2.688" ry="2.973" transform="translate(270.556 655.205)"/>
    <path id="Path_15" data-name="Path 15" class="cls-8" d="M174.46,305.04s-10.159,37.667-12.6,45.945c-1.826,6.205-.274,17.006,15.184,17.006" transform="translate(46.505 167.813)"/>
    <path id="Path_16" data-name="Path 16" class="cls-7" d="M172.112,281.007c.095.992.113,28.944-4.107,43.546-1.577,5.461-2.568,6.643-2.568,6.643s15.425,4.149,21.174-7c7.088-13.744,15.6-30.279,7.494-38.264C184.86,276.821,172.112,281.007,172.112,281.007Z" transform="translate(50.734 142.536)"/>
    <rect id="Rectangle_21" data-name="Rectangle 21" class="cls-9" width="3.419" height="173.409" transform="translate(362.966 457.266) rotate(4.64)"/>
    <path id="Path_17" data-name="Path 17" class="cls-8" d="M317.956,284.334c-1.478,8.142-2.7,20.572-14.8,20.576-8.995,0-26.946,0-26.946,0" transform="translate(162.771 146.872)"/>
    <g id="Group_8" data-name="Group 8" transform="translate(229.471 290.896)">
      <path id="Path_18" data-name="Path 18" class="cls-10" d="M191.78,380.152l-3.37,6.864,7.707,3.856,4.971-7.237Z" transform="translate(-155.502 -47.118)"/>
      <path id="Path_19" data-name="Path 19" class="cls-10" d="M174.709,391.945l-.914-8.6h8.666v8.6Z" transform="translate(-170.283 -43.89)"/>
      <g id="Group_7" data-name="Group 7" transform="translate(36.277)">
        <path id="Path_20" data-name="Path 20" class="cls-11" d="M222.1,261.72c-.183.121,22.9,76.675,22.9,76.675s.684,2.6,4.266,3.093,27.843,0,27.843,0-5.734-8.468-15.485-7.979-10.892-.316-10.892-.316l-9.011-83.85Z" transform="translate(-157.703 -179.412)"/>
        <path id="Path_21" data-name="Path 21" class="cls-12" d="M235.843,229.789,226.6,244.7s12.213,14.168,12.213,13.679,7.816-18.889,7.816-18.889Z" transform="translate(-153.158 -199.189)"/>
        <path id="Path_22" data-name="Path 22" class="cls-13" d="M242.738,231.01s12.09,10.672,21.373,7.742,12.374-7.432,8.3-12.834-15.956-6.869-21.819-7.52-6.513-4.4-10.91-3.745-8.7,3.745-8.993,9.28,0,21.244,0,21.244l.036,2.856,4.153-6.024.276-5.191,2.573.306Z" transform="translate(-149.147 -214.575)"/>
        <path id="Path_23" data-name="Path 23" class="cls-14" d="M237.665,231.42s-4.558-3.908-5.7-1.14,2.85,6.026,2.85,6.026-4.642,3.908-4.153,6.024,10.1,17.913,16.284,16.284,14.981-20.192,14.329-26.053-12.213-14.005-14.329-12.05S237.665,231.42,237.665,231.42Z" transform="translate(-149.082 -208.873)"/>
        <path id="Path_24" data-name="Path 24" class="cls-13" d="M235.26,224.782c.163.489,15.606,15.22,24.1,10.586s7-10.586,7-10.586l-28.66-6.861Z" transform="translate(-144.397 -211.192)"/>
        <path id="Path_25" data-name="Path 25" class="cls-15" d="M198.39,272.332c.326-.652,26.379-32.077,42.337-34.032s22.8-.978,22.8-.978L275.737,251s6,25.45-12.213,54.224c-18.237,28.821-38.692,37.188-38.692,37.188l-34.746-65.359Z" transform="translate(-190.085 -191.816)"/>
        <path id="Path_26" data-name="Path 26" class="cls-14" d="M242.794,250.817,218.34,266.906s25.5,21.658,49.632,31.427,75.261,23.448,80.472,19.052c2.281-1.521,4.737-3.258,8.142-9.606,0,0,21.459-4.025,16.447-5.374-4.234-.326-31.1-5.7-33.22,5.211C282.822,293.611,267.972,273.867,242.794,250.817Z" transform="translate(-161.509 -177.922)"/>
      </g>
      <path id="Path_27" data-name="Path 27" class="cls-16" d="M246.653,295.266c.871-.509,31.154,56.793,25.778,76.989-10.819,40.635-55.093,97.233-55.093,97.233l-9.309-3.482s23.531-88.528,24.981-96.946-13.062-11.61-19.446-7.836L183.957,473.842h-9.868s-3.192-71.983,0-93.462a147.277,147.277,0,0,0-1.42-51.664c-2.611-13.643,11.288-26.124,11.288-26.124Z" transform="translate(-171.752 -132.972)"/>
      <path id="Path_28" data-name="Path 28" class="cls-3" d="M191.917,382.95s-6.945,4.628-6.792,6.79,6.792,6.173,6.792,6.173l2.16-1.39,7.408,8.49H219.85s2.315-1.545,0-2.625l-15.864-7.408L201,385.158C198.2,387.25,193.524,385.426,191.917,382.95Z" transform="translate(-158.828 -44.288)"/>
      <path id="Path_29" data-name="Path 29" class="cls-3" d="M175.937,386.019s2.824,4.783,8.665,2.16c0,0,7.848,4.013,10.781,5.093s13.118,3.24,14.043,3.858.607,2.78.607,2.78H188.9s-5.865-3.242-7.563-2.933-1.068,2.933-1.068,2.933h-7.933s-.648-8.6,0-10.033C173.041,388.316,173.93,386.482,175.937,386.019Z" transform="translate(-172.049 -41.184)"/>
    </g>
    <path id="Path_30" data-name="Path 30" class="cls-7" d="M227.811,349.32H177.43a9.638,9.638,0,0,1-9.61-9.61h0a9.638,9.638,0,0,1,9.61-9.61h50.381a9.638,9.638,0,0,1,9.61,9.61h0A9.638,9.638,0,0,1,227.811,349.32Z" transform="translate(53.145 193.157)"/>
    <g id="Group_9" data-name="Group 9" transform="translate(207.745 319.63)">
      <path id="Path_31" data-name="Path 31" class="cls-14" d="M216.169,402.359c-4.318-1.016-7.985-3.777-11.509-6.471a18.413,18.413,0,0,1-2.86-2.512,15.37,15.37,0,0,1-2.725-5.36,4.8,4.8,0,0,1-.268-3.055,1.959,1.959,0,0,1,1.766-1.311c.726.078,1.191.937,1.647,1.468a48.04,48.04,0,0,1,3.279,4.363,97.115,97.115,0,0,0,6.239,8.828A22.6,22.6,0,0,0,216.169,402.359Z" transform="translate(-123.42 -72.321)"/>
      <path id="Path_32" data-name="Path 32" class="cls-17" d="M214.385,274.549c.054.086.109.173.163.258,2.518,3.974,6.058,7.2,8.84,10.994,4.487,6.119,6.111,15.007,1.241,21.369-3.323,4.34-7.816,5.654-13.118,5.537a16.635,16.635,0,0,1-5.849-.9,13.627,13.627,0,0,1-5.511-4.554c-1.794-2.327-3.242-5.209-2.764-8.108.384-2.323,1.931-4.254,3.176-6.253a19.656,19.656,0,0,0,2.353-5.211c1.263-4.654.29-9.618-1.173-14.214-1.452-4.564-3.492-9.053-4.166-13.828-.2-1.418-.571-3.723.44-4.948,1.494-1.812,6.392-2.629,7.79-.426.883,1.39,1.285,3.693,1.921,5.254l2.794,6.867A54.436,54.436,0,0,0,214.385,274.549Z" transform="translate(-124.791 -204.508)"/>
      <path id="Path_33" data-name="Path 33" class="cls-14" d="M196.695,390.565c-.241.191,5.244,5.519,5.244,5.519l8.234-17.6-10.584-1.366Z" transform="translate(-125.405 -78.917)"/>
      <path id="Path_34" data-name="Path 34" class="cls-18" d="M208.55,449.819s57.7-82.711,55.68-93.838-27.6-36.1-50.505-44.5c0,0,5.445,57.245-3.321,88.405l-13.613,48.4Z" transform="translate(-125.299 -145.302)"/>
      <path id="Path_35" data-name="Path 35" class="cls-19" d="M209.184,273.288a2.714,2.714,0,0,1,1.052,1c1.368,2.253,2.458,4.735,3.677,7.072q4.354,8.339,8.727,16.666l1.046,1.993s60.922-1.462,62.994,0,10.638,10.029,10.638,10.029-2.746,1.124-4.145,0c-7.736-6.217-20.168-2.486-20.168-2.486q-14.44,1.717-28.875,3.441-9.92,1.186-19.84,2.377-3.811.462-7.625.923c-1.4.171-2.681.728-4.021.945-2.221.358-3.367-1.834-4.153-3.659a178.193,178.193,0,0,1-10.67-33.546,1.944,1.944,0,0,1-.02-1.082,1.884,1.884,0,0,1,.831-.831C200.907,274.706,206.414,271.8,209.184,273.288Z" transform="translate(-124.351 -184.349)"/>
      <path id="Path_36" data-name="Path 36" class="cls-20" d="M192.62,248.487c.149.352,0,15.914,0,15.914s2.112,7.185,7.223,6.493,7.462-3.315,7.462-3.315V251.693Z" transform="translate(-129.518 -209.013)"/>
      <path id="Path_37" data-name="Path 37" class="cls-14" d="M206.4,237.123c1.255.121,2.558.243,3.822.358,4.32.39,7.518,3.868,7.231,7.85l-1.354,18.79c-.368,5.093-6.119,8.351-11.207,6.314-6.619-2.649-12.016-5.628-12.171-6.056-.233-.644,0-20.852,0-20.852s2.806-3.009,3.974-.215c.408.98.819.4,1.177-.758A8.024,8.024,0,0,1,206.4,237.123Z" transform="translate(-129.518 -220.546)"/>
      <path id="Path_38" data-name="Path 38" class="cls-21" d="M214.5,255.391c3.844,3.081,9.777,7.132,14.844,5.276a4.51,4.51,0,0,0,.487,1.3c3.637,5.606,8.259,10.793,10.037,17.233,2.174,7.875-.272,16.208-2.828,23.965-1.07,3.246-3.051,6.163-4.033,9.351-1.179,3.832.133,7.5.119,11.284-.026,6.845,1.625,13.581,3.053,20.22.865,4.031,1.653,8.08,2.412,12.133.732,3.91,2.219,8.407,2.174,12.362a32.917,32.917,0,0,0-6.6-.314l-7.271-.1q-9.673-.133-19.347-.269l-34.348-.477c-2.011-.028-2.575.016-2-2.046,2.595-9.367,7.883-17.624,11.022-26.848a84.809,84.809,0,0,0,4.666-23.338c.27-5.827-.2-11.666,0-17.495a67.38,67.38,0,0,1,2.17-15.029c1.056-3.96,2.363-9.2,4.831-12.488a44.9,44.9,0,0,1,9.248-9.045,37.79,37.79,0,0,1,5.495-3.373C209.36,257.328,213.875,254.89,214.5,255.391Z" transform="translate(-151.397 -202.099)"/>
      <path id="Path_39" data-name="Path 39" class="cls-22" d="M183.711,287.615c0-.2,30.253-8.345,30.253-8.345l12.991,26.8s59.812-9.807,63.127-9.254,10.5,1.933,11.742,3.453,1.933,11.465,1.933,11.465-1.243-1.657-2.762-4.143-2.486,2.486-6.493,1.1a63.148,63.148,0,0,1-8.289-3.729s-56.775,29.7-69.9,25.971S183.711,287.615,183.711,287.615Z" transform="translate(-138.528 -177.88)"/>
      <path id="Path_40" data-name="Path 40" class="cls-23" d="M170.848,311s-4.463,21.081,17.638,32.353,68.732,26.3,75.364,27.4c0,0,31.836,71.729,37.9,84.881,4.99,10.827,5.2,12.762,5.2,12.762l12.6-1.5s-18.122-88.846-23.869-102.547-40.829-46.418-55.335-52.382Z" transform="translate(-151.911 -145.789)"/>
      <path id="Path_41" data-name="Path 41" class="cls-24" d="M201.649,382.991c-.362-.183-.7-.03-1.374.268a13.892,13.892,0,0,0-4.33,2.727c-1.283,1.291-1.167,3.325-1.613,5.016a30.846,30.846,0,0,1-2.456,6.35,11.376,11.376,0,0,0,4.1,1.786c.179-3.13,3.5-5.324,5.616-7.181a68.969,68.969,0,0,1,7.965,8.707,8.759,8.759,0,0,0,2.961,3.053,7.7,7.7,0,0,0,1.667.513q4.118.929,8.235,1.865c.825.185,5.26-.362,3.377-1.667-3.793-2.629-7.957-4.713-11.555-7.621a64.351,64.351,0,0,1-6.118-6.314q-2.058-2.2-3.964-4.536c-.656-.8-1.255-1.665-1.931-2.45A2.047,2.047,0,0,0,201.649,382.991Z" transform="translate(-130.271 -73.061)"/>
      <path id="Path_42" data-name="Path 42" class="cls-17" d="M255.726,243.882a3.5,3.5,0,0,1-.08.531c-.5,3.842-2.49,5.855-6.438,6.066-4.027.187-8-.953-11.843-1.959-2.331-.609-4.9,1.3-6.519,2.834-.688.662-1.138,1.617-2.066,2.013-1.008.424-1.961-.159-2.81.875a3.316,3.316,0,0,0-.529,2.6,6.63,6.63,0,0,0,1.138,2.438,5.07,5.07,0,0,1,.768,1.325,4.451,4.451,0,0,1-.078,2.357,26.757,26.757,0,0,0-.292,6.332,44.488,44.488,0,0,0,2.862,10.759c2.279,6.066,5.167,12.028,5.907,18.468.424,3.814-.026,8-2.569,10.89-2.836,3.178-7.446,3.974-11.686,4.477-3.391.4-7.285,1.034-9.035,3.974a11.492,11.492,0,0,0-1.193,4,57.641,57.641,0,0,1-3.894,14.44,25.782,25.782,0,0,1-7.128,9.673c-1.43,1.138-3.1,1.959-4.451,3.206a39.608,39.608,0,0,0-3.443,4.133,31.718,31.718,0,0,1-3.763,4,20.278,20.278,0,0,1-3.232,2.383,14.616,14.616,0,0,1-9.115,2.174,15.329,15.329,0,0,1-8.743-4.479,20.854,20.854,0,0,1-5.087-8,19.671,19.671,0,0,1-.716-10.783,31.34,31.34,0,0,1,3.5-8.373,41.9,41.9,0,0,1,5.988-8.691c4.373-4.636,10.572-7.1,14.572-12.161a27.616,27.616,0,0,0,4.081-7.659,57.934,57.934,0,0,0,1.935-6.306c2.57-10.28,2.649-20.932,4.266-31.371a63.544,63.544,0,0,1,3.974-14.944c4.662-11.048,16.612-18.44,28.165-19.766,5.034-.583,11.5-.9,16.984.716,3.894,1.138,7.287,3.313,9.22,7.074.213.451.4.9.583,1.352A11.8,11.8,0,0,1,255.726,243.882Z" transform="translate(-161.247 -228.861)"/>
      <path id="Path_43" data-name="Path 43" class="cls-17" d="M211.506,237.8h-.153" transform="translate(-110.572 -219.817)"/>
      <path id="Path_44" data-name="Path 44" class="cls-25" d="M255.432,242.388a3.456,3.456,0,0,1-.08.531c-1.828,1.933-4.5,2.967-6.967,1.933a28.469,28.469,0,0,1-3.1-1.907c-5.008-2.941-11.447-.821-16.429,2.12-6.2,3.657-11.95,9.113-13.221,16.189-1.4,8.08,3.339,16.057,3.1,24.243-.237,8.055-5.246,15.182-10.811,21.011-3.55,3.685-7.392,7.076-10.491,11.129a37.908,37.908,0,0,0-7.764,21.409c-.211,5.618.768,11.712-1.378,16.773a20.274,20.274,0,0,1-3.232,2.383,14.616,14.616,0,0,1-9.115,2.174A15.329,15.329,0,0,1,167.2,355.9a20.854,20.854,0,0,1-5.087-8,18.661,18.661,0,0,1-.477-6.412c.662-6.014,4.662-11.155,9.3-15.075,4.61-3.922,9.936-6.917,14.572-10.785a50.589,50.589,0,0,0,18.018-38.473c-.006-3.2-.316-6.41-.147-9.616a24.965,24.965,0,0,1,2-7.83,39.739,39.739,0,0,1,9.7-15.24c.9-1.018,1.8-2.035,2.792-2.959a37.705,37.705,0,0,1,4.365-3.343,51.224,51.224,0,0,1,6.664-4.037,36.527,36.527,0,0,1,9.146-3.26c6.048-1.026,12.106-1.062,15.709,4.664A10.429,10.429,0,0,1,255.432,242.388Z" transform="translate(-160.953 -227.368)"/>
      <path id="Path_45" data-name="Path 45" class="cls-26" d="M201.289,236.608a17.4,17.4,0,0,1-2.353,15.56c-1.511,2.078-3.466,3.787-5.163,5.716a10.451,10.451,0,0,0-1.657,13.7c1.136,2.142,2.542,4.145,3.488,6.378a17.2,17.2,0,0,1,1.358,6.485,13.832,13.832,0,0,1-1.889,7.392,9.986,9.986,0,0,1-6.008,4.544" transform="translate(-133.115 -221.027)"/>
    </g>
    <rect id="Rectangle_22" data-name="Rectangle 22" class="cls-9" width="157.095" height="4.195" transform="translate(347.165 453.19)"/>
    <rect id="Rectangle_23" data-name="Rectangle 23" class="cls-9" width="3.419" height="173.409" transform="translate(501.24 630.106) rotate(175.36)"/>
    <rect id="Rectangle_24" data-name="Rectangle 24" class="cls-27" width="19.594" height="3.214" transform="translate(380.71 449.973)"/>
    <rect id="Rectangle_25" data-name="Rectangle 25" class="cls-28" width="2.813" height="79.69" transform="translate(488.535 345.24) rotate(8.614)"/>
    <rect id="Rectangle_26" data-name="Rectangle 26" class="cls-27" width="6.17" height="93.378" transform="translate(491.237 340.217) rotate(8.617)"/>
    <g id="Group_12" data-name="Group 12" transform="translate(332.595 532.634)">
      <g id="Group_10" data-name="Group 10">
        <path id="Path_46" data-name="Path 46" class="cls-29" d="M250.245,446.29s-33.606-25.381-25.729-51.515,19.953-19.009,19.953-19.009,2.627-51.426,20.48-39.095,32.556,38.314,30.981,40.169,11.028-17.171,11.028,10.839-24.681,58.611-24.681,58.611C273.874,449.122,250.245,446.29,250.245,446.29Z" transform="translate(-223.319 -334.762)"/>
        <path id="Path_47" data-name="Path 47" class="cls-30" d="M243.3,341.269c-1.289,1.126,12.885,66.369,8.22,84.976" transform="translate(-203.194 -328.18)"/>
        <path id="Path_48" data-name="Path 48" class="cls-30" d="M231.532,361.819c-.6.4,14.7,22.964,32.771,28.98" transform="translate(-215.03 -307.397)"/>
        <path id="Path_49" data-name="Path 49" class="cls-30" d="M275.833,358.093s-11.077,16.7-28.016,24.142" transform="translate(-198.543 -311.165)"/>
      </g>
      <g id="Group_11" data-name="Group 11" transform="translate(19.338 111.003)">
        <path id="Path_50" data-name="Path 50" class="cls-31" d="M276.9,392.452l-1.619,3.916-8.388,20.311-22.055-.028-8.809-20.283-1.684-3.916Z" transform="translate(-231.507 -387.419)"/>
        <path id="Path_51" data-name="Path 51" class="cls-3" d="M276.9,391.821v1.268L275.281,397H236.028l-1.684-3.916v-1.268Z" transform="translate(-231.507 -388.056)"/>
        <path id="Path_52" data-name="Path 52" class="cls-31" d="M279.311,397.463l-46.377-2.489,0-5.024,50.633.021Z" transform="translate(-232.934 -389.949)"/>
      </g>
    </g>
    <path id="Path_55" data-name="Path 55" class="cls-32" d="M306.544,282.8l0,.008.1.068c.247.173,4.21,7.651,4.355,7.933l-6.547,5.984c-.266-.171-7.362-4.785-7.508-5.049l-.06-.107-.008,0L289,294.489l0,.008.024.119c.054.3-2.434,8.387-2.53,8.689l-8.862-.4c-.066-.31-1.82-8.591-1.74-8.88l.034-.117,0-.01-7.591-3.55-.01,0-.066.1c-.173.249-7.651,4.21-7.933,4.357l-5.984-6.549c.171-.266,4.785-7.362,5.049-7.508l.107-.058,0-.01-2.856-7.88-.008,0-.119.024c-.3.054-8.387-2.434-8.689-2.528l.4-8.862c.31-.068,8.589-1.82,8.88-1.74l.117.034.008,0,3.552-7.593,0-.01-.1-.066c-.247-.173-4.208-7.651-4.355-7.933l6.549-5.984c.266.171,7.36,4.785,7.508,5.049l.058.107.01,0,7.878-2.858.006-.008-.024-.119c-.054-.3,2.434-8.387,2.528-8.689l8.862.4c.068.31,1.82,8.588,1.74,8.88l-.034.117,0,.008,7.593,3.552.008,0,.068-.1c.171-.249,7.651-4.21,7.931-4.357l5.986,6.549c-.171.265-4.787,7.36-5.048,7.508l-.107.058,0,.01,2.856,7.878.01.006.119-.024c.3-.054,8.385,2.434,8.689,2.528l-.4,8.862c-.31.068-8.59,1.82-8.88,1.74l-.117-.034-.01,0Zm-9.717-27.369a17.839,17.839,0,1,0-1.132,25.2A17.837,17.837,0,0,0,296.827,255.428Z" transform="translate(134.052 93.561)"/>
    <g id="Group_16" data-name="Group 16" transform="translate(407.473 499.598)">
      <g id="Group_14" data-name="Group 14">
        <path id="Path_56" data-name="Path 56" class="cls-16" d="M291.675,434.051c-2.822-.258-5.992-1.836-9.176-3.645a178.29,178.29,0,0,1-2.991-23.734,150.23,150.23,0,0,1,14.788,2.959c-2.75-.716-8.83-4.483-15.035-7.609q-.22-5.132-.227-10.515a203.407,203.407,0,0,1,3.311-38.133,70.375,70.375,0,0,1,12.259,4.54c-2.667-1.305-6.792-5.879-11.1-9.8,2.927-11.925,7.046-19.365,11.612-19.365,7.35,0,13.545,19.247,15.463,45.521-4.93,4.552-9.638,10.479-11.907,12.877,1.665-1.754,6.915-3.18,12.354-4.815q.169,4.5.173,9.178a222.622,222.622,0,0,1-1.732,28.328c-5.429,3.427-10.632,7.579-13.454,8.385,4.218-1.2,8.464-2.313,12.726-3.361-2.846,17.662-7.88,29.41-13.623,29.41-4.771,0-9.055-8.12-12-21Q287.394,433.658,291.675,434.051Z" transform="translate(-241.85 -307.81)"/>
        <path id="Path_57" data-name="Path 57" class="cls-31" d="M295.472,440.187c-2.808.412-6.364-.605-10-1.883a251.088,251.088,0,0,1-10.29-26.494,130.077,130.077,0,0,1,15.214-.31c-2.88-.133-9.932-2.933-16.9-4.966q-1.813-5.832-3.5-12.012a286.162,286.162,0,0,1-8.687-44.6,64.254,64.254,0,0,1,13.263,2.138c-2.985-.829-8.4-5.047-13.786-8.468-.889-14.424.772-24,5.187-25.14,7.1-1.842,19.09,18.7,29.139,48.375-3.347,6.46-6.048,14.446-7.5,17.766,1.064-2.432,5.694-5.386,10.441-8.625q1.563,5.117,3.029,10.491a314.137,314.137,0,0,1,7.156,32.95c-4.178,5.294-7.913,11.366-10.389,13,3.7-2.442,7.46-4.779,11.252-7.05,2.758,20.987,1.553,35.734-3.995,37.172-4.614,1.2-11.286-7.048-18.149-21.1Z" transform="translate(-260.547 -318.337)"/>
        <path id="Path_58" data-name="Path 58" class="cls-29" d="M293.947,421.265c-2.221-1.716-4.051-4.626-5.777-7.718a150.234,150.234,0,0,1,9.719-19.659c3.727,3.25,7.37,6.6,10.809,10.222-1.923-2.027-5.057-8.17-8.623-13.89q2.456-4.022,5.219-8.12a174.2,174.2,0,0,1,22.386-27.212,72.393,72.393,0,0,1,7.889,10.059c-1.555-2.43-2.641-8.132-4.216-13.436,8.578-7.49,15.844-10.928,19.651-8.466,6.131,3.962,1.394,21.934-10.527,42.951-6.452.8-13.432,2.774-16.56,3.373,2.295-.436,7.408,1.309,12.784,3q-2.172,3.509-4.578,7.072A190.021,190.021,0,0,1,316.1,420.046c-6.292-.322-12.768.032-15.538-.877,4.139,1.358,8.251,2.8,12.344,4.3-11.461,11.9-21.707,18.114-26.5,15.021-3.98-2.573-3.375-11.054.8-22.439Q290.579,418.659,293.947,421.265Z" transform="translate(-237.1 -294.145)"/>
      </g>
      <g id="Group_15" data-name="Group 15" transform="translate(1.339 124.124)">
        <path id="Path_59" data-name="Path 59" class="cls-31" d="M346.568,385.287l-1.643,8.028-7.005,34.537H273.55l-7-34.537-1.643-8.028Z" transform="translate(-257.482 -374.751)"/>
        <path id="Path_60" data-name="Path 60" class="cls-3" d="M346.568,383.634v3.324l-1.643,8.028h-78.38l-1.643-8.028v-3.324Z" transform="translate(-257.482 -376.422)"/>
        <rect id="Rectangle_33" data-name="Rectangle 33" class="cls-31" width="94.021" height="13.796"/>
      </g>
    </g>
    <path id="Path_61" data-name="Path 61" class="cls-15" d="M300.848,258.36v.008l.082.066c.223.183,2.178,8.078,2.251,8.373l-7.8,7.325c-.29-.088-8.045-2.538-8.216-2.774l-.06-.084-.008,0-10.332,6.046,0,.008.044.1c.123.261-1.541,8.222-1.605,8.52l-10.208,3.214c-.223-.205-6.149-5.779-6.2-6.062l-.018-.1-.006,0-11.933.965,0,.006,0,.1c0,.29-4.956,6.74-5.143,6.979l-10.592-1.533c-.111-.282-3.031-7.872-2.955-8.15l.03-.1,0-.006L217,276.943l-.008,0-.046.095c-.131.259-7.392,3.922-7.663,4.057L200.4,275.12c.022-.3.684-8.409.875-8.625l.07-.08v-.008l-8.194-8.727h-.008l-.082.064c-.229.177-8.361.328-8.665.33l-5.4-9.234c.151-.264,4.264-7.281,4.53-7.394l.1-.04,0-.006-3.6-11.42-.006,0-.1.022c-.284.06-7.675-3.333-7.951-3.462L171.1,215.87c.251-.171,7-4.709,7.291-4.695l.1.006.006,0,1.714-11.849,0-.006-.1-.026c-.28-.066-5.469-6.332-5.66-6.567l3.852-9.984c.3-.046,8.349-1.2,8.6-1.066l.091.05.008,0,6.686-9.932v-.008l-.082-.066c-.223-.183-2.18-8.078-2.251-8.373l7.8-7.323c.29.088,8.045,2.536,8.214,2.772l.062.086h.008l10.332-6.046,0-.008-.044-.095c-.123-.263,1.541-8.224,1.605-8.52L229.549,141c.221.207,6.147,5.779,6.2,6.062l.016.1.008.006L247.7,146.2l.006-.006,0-.107c0-.288,4.956-6.74,5.143-6.979l10.592,1.533c.111.282,3.031,7.872,2.955,8.152l-.03.1,0,.008,11.169,4.306.008,0,.046-.095c.129-.259,7.392-3.922,7.663-4.057l8.878,5.976c-.024.3-.684,8.409-.875,8.627l-.07.078v.008l8.194,8.727h.008l.082-.064c.229-.177,8.361-.326,8.665-.33l5.4,9.236c-.151.262-4.264,7.279-4.53,7.392l-.1.04,0,.008,3.6,11.418.006,0,.1-.022c.284-.06,7.675,3.333,7.949,3.462l.863,10.666c-.249.171-7,4.709-7.289,4.695l-.1-.006-.006,0-1.716,11.849.006.008.1.024c.28.068,5.469,6.332,5.66,6.567l-3.852,9.984c-.3.046-8.349,1.2-8.6,1.068l-.093-.052-.006,0Zm-25.882-69.287a37.991,37.991,0,1,0-1.692,53.7A37.99,37.99,0,0,0,274.966,189.072Z" transform="translate(56.466)"/>
    <rect id="Rectangle_34" data-name="Rectangle 34" class="cls-28" width="37.314" height="7.208" rx="1.18" transform="translate(237.316 646.604)"/>
    <line id="Line_1" data-name="Line 1" class="cls-33" y2="107.401" transform="translate(255.766 540.563)"/>
  </g>
</svg>
